<svg width="139" height="147" viewBox="0 0 139 147" fill="none" xmlns="http://www.w3.org/2000/svg">
<g filter="url(#filter0_d)">
<rect x="15" y="23" width="99" height="100" rx="3" fill="white"/>
<rect x="25" y="16" width="6" height="17" rx="3" fill="#E5E5E5"/>
<rect x="40" y="16" width="6" height="17" rx="3" fill="#E5E5E5"/>
<rect x="55" y="16" width="6" height="17" rx="3" fill="#E5E5E5"/>
<rect x="69" y="16" width="6" height="17" rx="3" fill="#E5E5E5"/>
<rect x="84" y="16" width="6" height="17" rx="3" fill="#E5E5E5"/>
<rect x="99" y="16" width="6" height="17" rx="3" fill="#E5E5E5"/>
<rect x="22.5" y="39.5" width="84" height="73" stroke="#C4C4C4"/>
<rect x="22.5" y="86.5" width="84" height="13" stroke="#C4C4C4"/>
<rect x="22.5" y="73.5" width="84" height="13" stroke="#C4C4C4"/>
<rect x="22.5" y="60.5" width="84" height="13" stroke="#C4C4C4"/>
<rect x="22.5" y="112.5" width="52" height="14" transform="rotate(-90 22.5 112.5)" stroke="#C4C4C4"/>
<rect x="36.5" y="112.5" width="52" height="14" transform="rotate(-90 36.5 112.5)" stroke="#C4C4C4"/>
<rect x="50.5" y="112.5" width="52" height="14" transform="rotate(-90 50.5 112.5)" stroke="#C4C4C4"/>
<rect x="64.5" y="112.5" width="52" height="14" transform="rotate(-90 64.5 112.5)" stroke="#C4C4C4"/>
<rect x="78.5" y="112.5" width="52" height="14" transform="rotate(-90 78.5 112.5)" stroke="#C4C4C4"/>
<rect x="92.5" y="112.5" width="52" height="14" transform="rotate(-90 92.5 112.5)" stroke="#C4C4C4"/>
<rect x="22.5" y="99.5" width="84" height="13" stroke="#C4C4C4"/>
<circle cx="99" cy="80" r="3" fill="#C4C4C4"/>
<circle cx="99" cy="80" r="3" fill="#C4C4C4"/>
<circle cx="30" cy="93" r="3" fill="#C4C4C4"/>
<circle cx="30" cy="93" r="3" fill="#C4C4C4"/>
<circle cx="44" cy="93" r="3" fill="#C4C4C4"/>
<circle cx="44" cy="93" r="3" fill="#C4C4C4"/>
<circle cx="58" cy="93" r="3" fill="#C4C4C4"/>
<circle cx="58" cy="93" r="3" fill="#C4C4C4"/>
<circle cx="72" cy="93" r="3" fill="#C4C4C4"/>
<circle cx="72" cy="93" r="3" fill="#C4C4C4"/>
</g>
<defs>
<filter id="filter0_d" x="0" y="0" width="139" height="147" filterUnits="userSpaceOnUse" color-interpolation-filters="sRGB">
<feFlood flood-opacity="0" result="BackgroundImageFix"/>
<feColorMatrix in="SourceAlpha" type="matrix" values="0 0 0 0 0 0 0 0 0 0 0 0 0 0 0 0 0 0 127 0"/>
<feOffset dx="5" dy="4"/>
<feGaussianBlur stdDeviation="10"/>
<feColorMatrix type="matrix" values="0 0 0 0 0 0 0 0 0 0 0 0 0 0 0 0 0 0 0.25 0"/>
<feBlend mode="normal" in2="BackgroundImageFix" result="effect1_dropShadow"/>
<feBlend mode="normal" in="SourceGraphic" in2="effect1_dropShadow" result="shape"/>
</filter>
</defs>
</svg>
