<svg width="180" height="142" viewBox="0 0 180 142" fill="none" xmlns="http://www.w3.org/2000/svg">
<g filter="url(#filter0_d)">
<g filter="url(#filter1_d)">
<path fill-rule="evenodd" clip-rule="evenodd" d="M46.7503 113.617C59.5914 113.617 70.0012 103.208 70.0012 90.3665C70.0012 77.5253 59.5914 67.1155 46.7503 67.1155C33.9092 67.1155 23.4994 77.5253 23.4994 90.3665C23.4994 103.208 33.9092 113.617 46.7503 113.617ZM46.5877 109.715C57.3635 109.715 66.099 100.98 66.099 90.2039C66.099 79.4281 57.3635 70.6926 46.5877 70.6926C35.812 70.6926 27.0765 79.4281 27.0765 90.2039C27.0765 100.98 35.812 109.715 46.5877 109.715Z" fill="#FFFBE7"/>
</g>
<g filter="url(#filter2_d)">
<path fill-rule="evenodd" clip-rule="evenodd" d="M152.952 65.5622C156.393 63.9574 154.313 52.2121 148.305 39.3282C142.297 26.4444 134.637 17.301 131.195 18.9058C127.754 20.5106 129.834 32.2559 135.842 45.1397C141.85 58.0236 149.51 67.167 152.952 65.5622ZM151.082 61.6673C153.97 60.3206 152.224 50.4644 147.183 39.6528C142.141 28.8412 135.713 21.1684 132.825 22.5151C129.937 23.8617 131.683 33.718 136.725 44.5296C141.766 55.3412 148.194 63.014 151.082 61.6673Z" fill="#FFFBE7"/>
</g>
<path d="M87.5191 46.7312C105.355 42.3995 122.555 29.8504 128.925 24.1173C130.517 23.3741 133.384 19.8493 134.658 20.6137C135.932 21.3782 142.302 30.1689 145.487 35.265C150.796 45.0325 159.565 67.6252 148.354 64.5675C137.142 61.5099 92.2967 89.6233 71.2753 104.062C67.1347 107.247 57.2611 119.924 43.2468 117.121C29.2325 114.318 23.1809 105.973 21.9069 102.151C20.102 96.6304 18.2122 83.3594 25.092 74.4412C33.6916 63.2935 65.2237 52.1458 87.5191 46.7312Z" fill="#FFFBE7" fill-opacity="0.53"/>
</g>
<defs>
<filter id="filter0_d" x="0.224121" y="0" width="178.959" height="141.523" filterUnits="userSpaceOnUse" color-interpolation-filters="sRGB">
<feFlood flood-opacity="0" result="BackgroundImageFix"/>
<feColorMatrix in="SourceAlpha" type="matrix" values="0 0 0 0 0 0 0 0 0 0 0 0 0 0 0 0 0 0 127 0"/>
<feOffset dy="4"/>
<feGaussianBlur stdDeviation="10"/>
<feColorMatrix type="matrix" values="0 0 0 0 0 0 0 0 0 0 0 0 0 0 0 0 0 0 0.25 0"/>
<feBlend mode="normal" in2="BackgroundImageFix" result="effect1_dropShadow"/>
<feBlend mode="normal" in="SourceGraphic" in2="effect1_dropShadow" result="shape"/>
</filter>
<filter id="filter1_d" x="3.49939" y="51.1155" width="86.5018" height="86.5018" filterUnits="userSpaceOnUse" color-interpolation-filters="sRGB">
<feFlood flood-opacity="0" result="BackgroundImageFix"/>
<feColorMatrix in="SourceAlpha" type="matrix" values="0 0 0 0 0 0 0 0 0 0 0 0 0 0 0 0 0 0 127 0"/>
<feOffset dy="4"/>
<feGaussianBlur stdDeviation="10"/>
<feColorMatrix type="matrix" values="0 0 0 0 0 0 0 0 0 0 0 0 0 0 0 0 0 0 0.25 0"/>
<feBlend mode="normal" in2="BackgroundImageFix" result="effect1_dropShadow"/>
<feBlend mode="normal" in="SourceGraphic" in2="effect1_dropShadow" result="shape"/>
</filter>
<filter id="filter2_d" x="104.964" y="0" width="74.2191" height="92.4679" filterUnits="userSpaceOnUse" color-interpolation-filters="sRGB">
<feFlood flood-opacity="0" result="BackgroundImageFix"/>
<feColorMatrix in="SourceAlpha" type="matrix" values="0 0 0 0 0 0 0 0 0 0 0 0 0 0 0 0 0 0 127 0"/>
<feOffset dy="4"/>
<feGaussianBlur stdDeviation="10"/>
<feColorMatrix type="matrix" values="0 0 0 0 0 0 0 0 0 0 0 0 0 0 0 0 0 0 0.25 0"/>
<feBlend mode="normal" in2="BackgroundImageFix" result="effect1_dropShadow"/>
<feBlend mode="normal" in="SourceGraphic" in2="effect1_dropShadow" result="shape"/>
</filter>
</defs>
</svg>
