<svg width="146" height="155" viewBox="0 0 146 155" fill="none" xmlns="http://www.w3.org/2000/svg">
<g filter="url(#filter0_d)">
<path d="M65.8456 117.245C65.8456 115.919 66.9206 114.844 68.2468 114.844C69.5729 114.844 70.6479 115.919 70.6479 117.245V127.65C70.6479 128.976 69.5729 130.051 68.2468 130.051C66.9206 130.051 65.8456 128.976 65.8456 127.65V117.245Z" fill="white"/>
<path d="M19.0188 27.2374C17.1103 23.7518 22.5177 23.2765 26.1757 22.4843C26.4601 22.4843 33.6964 21.2174 41.921 20.362C41.4438 20.6733 37.6291 21.4646 33.8098 23.2765C30.4699 24.8608 29.5156 25.653 25.6986 28.4257C24.5631 29.2505 21.4044 31.5944 19.0188 27.2374Z" fill="white"/>
<path d="M68.1631 30.8023C68.6402 27.3694 67.3043 20.3454 58.1434 19.7116C53.5186 19.3917 47.493 19.7824 41.921 20.362M41.921 20.362C33.6964 21.2174 26.4601 22.4843 26.1757 22.4843C22.5177 23.2765 17.1103 23.7518 19.0188 27.2374C21.4044 31.5944 24.5631 29.2505 25.6986 28.4257C29.5156 25.653 30.4699 24.8608 33.8098 23.2765C37.6291 21.4646 41.4438 20.6733 41.921 20.362Z" stroke="white" stroke-width="6"/>
<path d="M117.475 27.2374C119.383 23.7518 113.976 23.2765 110.318 22.4843C110.033 22.4843 102.797 21.2174 94.5726 20.362C95.0497 20.6733 98.8644 21.4646 102.684 23.2765C106.024 24.8608 106.978 25.653 110.795 28.4257C111.93 29.2505 115.089 31.5944 117.475 27.2374Z" fill="white"/>
<path d="M68.3304 30.8023C67.8533 27.3694 69.1893 20.3454 78.3501 19.7116C82.9749 19.3917 89.0005 19.7824 94.5726 20.362M94.5726 20.362C102.797 21.2174 110.033 22.4843 110.318 22.4843C113.976 23.2765 119.383 23.7518 117.475 27.2374C115.089 31.5944 111.93 29.2505 110.795 28.4257C106.978 25.653 106.024 24.8608 102.684 23.2765C98.8644 21.4646 95.0497 20.6733 94.5726 20.362Z" stroke="white" stroke-width="6"/>
<rect x="61.0432" y="29.2015" width="14.4071" height="88.8438" rx="7.20355" fill="#B05029"/>
<rect x="63.4445" y="37.2054" width="2.40118" height="64.0315" rx="1.20059" fill="#E19475"/>
</g>
<defs>
<filter id="filter0_d" x="0.62085" y="0.596924" width="145.252" height="153.454" filterUnits="userSpaceOnUse" color-interpolation-filters="sRGB">
<feFlood flood-opacity="0" result="BackgroundImageFix"/>
<feColorMatrix in="SourceAlpha" type="matrix" values="0 0 0 0 0 0 0 0 0 0 0 0 0 0 0 0 0 0 127 0"/>
<feOffset dx="5" dy="4"/>
<feGaussianBlur stdDeviation="10"/>
<feColorMatrix type="matrix" values="0 0 0 0 0 0 0 0 0 0 0 0 0 0 0 0 0 0 0.25 0"/>
<feBlend mode="normal" in2="BackgroundImageFix" result="effect1_dropShadow"/>
<feBlend mode="normal" in="SourceGraphic" in2="effect1_dropShadow" result="shape"/>
</filter>
</defs>
</svg>
