<svg width="152" height="152" viewBox="0 0 152 152" fill="none" xmlns="http://www.w3.org/2000/svg">
<g filter="url(#filter0_d)">
<path fill-rule="evenodd" clip-rule="evenodd" d="M75.841 127.574C106.588 127.574 131.514 102.649 131.514 71.9016C131.514 41.1545 106.588 16.229 75.841 16.229C45.0939 16.229 20.1685 41.1545 20.1685 71.9016C20.1685 102.649 45.0939 127.574 75.841 127.574ZM75.4517 118.231C101.254 118.231 122.17 97.3141 122.17 71.5123C122.17 45.7105 101.254 24.794 75.4517 24.794C49.6499 24.794 28.7335 45.7105 28.7335 71.5123C28.7335 97.3141 49.6499 118.231 75.4517 118.231Z" fill="url(#paint0_radial)"/>
</g>
<defs>
<filter id="filter0_d" x="0.168457" y="0.229004" width="151.345" height="151.345" filterUnits="userSpaceOnUse" color-interpolation-filters="sRGB">
<feFlood flood-opacity="0" result="BackgroundImageFix"/>
<feColorMatrix in="SourceAlpha" type="matrix" values="0 0 0 0 0 0 0 0 0 0 0 0 0 0 0 0 0 0 127 0"/>
<feOffset dy="4"/>
<feGaussianBlur stdDeviation="10"/>
<feColorMatrix type="matrix" values="0 0 0 0 0 0 0 0 0 0 0 0 0 0 0 0 0 0 0.25 0"/>
<feBlend mode="normal" in2="BackgroundImageFix" result="effect1_dropShadow"/>
<feBlend mode="normal" in="SourceGraphic" in2="effect1_dropShadow" result="shape"/>
</filter>
<radialGradient id="paint0_radial" cx="0" cy="0" r="1" gradientUnits="userSpaceOnUse" gradientTransform="translate(75.841 71.9016) rotate(90) scale(55.6726)">
<stop offset="0.552083" stop-color="#DFDFDF"/>
<stop offset="1" stop-color="white"/>
</radialGradient>
</defs>
</svg>
